<?xml version="1.0" encoding="UTF-8"?>
<svg width="51px" height="55px" viewBox="0 0 51 55" version="1.1" xmlns="http://www.w3.org/2000/svg" xmlns:xlink="http://www.w3.org/1999/xlink">
    <title>BEAUTY</title>
    <g id="Page-1" stroke="none" stroke-width="1" fill="none" fill-rule="evenodd">
        <g id="Landing-Page" transform="translate(-744.000000, -2760.000000)" fill="#FFFFFF">
            <g id="BEAUTY" transform="translate(744.000000, 2760.000000)">
                <path d="M33.2222222,13 L38.7777778,13 C40.0066667,13 41,11.88 41,10.5 C41,9.12 40.0066667,8 38.7777778,8 L33.2222222,8 C31.9933333,8 31,9.12 31,10.5 C31,11.88 31.9933333,13 33.2222222,13" id="Fill-1"></path>
                <path d="M33.2222222,22 L38.7777778,22 C40.0066667,22 41,20.88 41,19.5 C41,18.12 40.0066667,17 38.7777778,17 L33.2222222,17 C31.9933333,17 31,18.12 31,19.5 C31,20.88 31.9933333,22 33.2222222,22" id="Fill-3"></path>
                <path d="M33.2222222,32 L38.7777778,32 C40.0066667,32 41,30.8825 41,29.5 C41,28.12 40.0066667,27 38.7777778,27 L33.2222222,27 C31.9933333,27 31,28.12 31,29.5 C31,30.8825 31.9933333,32 33.2222222,32" id="Fill-5"></path>
                <path d="M24.3571429,42.3962272 C25.5794286,42.3962272 26.5714286,43.4205702 26.5714286,44.6878223 C26.5714286,45.9550743 25.5794286,46.9794173 24.3571429,46.9794173 C23.1348571,46.9794173 22.1428571,45.9550743 22.1428571,44.6878223 C22.1428571,43.4205702 23.1348571,42.3962272 24.3571429,42.3962272 L24.3571429,42.3962272 Z M14.2046429,26.7744237 C13.9743571,26.9829589 13.6245,26.9600429 13.423,26.721717 C13.3344286,26.6185953 13.2857143,26.4833911 13.2857143,26.3436038 L13.2857143,18.765299 L15.5,9.80745393 L17.7142857,18.765299 L17.7142857,23.3347395 C17.7142857,23.4997344 17.6456429,23.6578544 17.5260714,23.767851 L14.2046429,26.7744237 Z M6.64285714,46.9794173 C5.42057143,46.9794173 4.42857143,45.9550743 4.42857143,44.6878223 C4.42857143,43.4205702 5.42057143,42.3962272 6.64285714,42.3962272 C7.86514286,42.3962272 8.85714286,43.4205702 8.85714286,44.6878223 C8.85714286,45.9550743 7.86514286,46.9794173 6.64285714,46.9794173 L6.64285714,46.9794173 Z M31,44.6878223 C31,40.8906493 28.0262143,37.8130371 24.3571429,37.8130371 C23.6020714,37.8199119 22.8514286,37.9619908 22.1428571,38.2346906 L22.1428571,18.476558 C22.1428571,18.284064 22.1185,18.0938617 22.0742143,17.9059509 L18.1903571,2.19935835 C18.0774286,1.73645615 17.825,1.32167745 17.4707143,1.01231212 L16.926,0.537951939 C16.1022857,-0.179317313 14.8977143,-0.179317313 14.074,0.537951939 L13.5292857,1.01231212 C13.175,1.32167745 12.9225714,1.73645615 12.8096429,2.19935835 L8.92578571,17.9059509 C8.8815,18.0938617 8.85714286,18.284064 8.85714286,18.476558 L8.85714286,38.2346906 C8.14857143,37.9619908 7.39792857,37.8199119 6.64285714,37.8130371 C2.97378571,37.8130371 0,40.8906493 0,44.6878223 C0,48.4849953 2.97378571,51.5626074 6.64285714,51.5626074 C10.3119286,51.5626074 13.2857143,48.4849953 13.2857143,44.6878223 L13.2857143,33.9585742 C13.2857143,33.7935794 13.3543571,33.6354593 13.4739286,33.5254627 L16.7953571,30.51889 C17.0256429,30.3103549 17.3755,30.3332708 17.577,30.5715967 C17.6655714,30.6770101 17.7142857,30.8099226 17.7142857,30.9497099 L17.7142857,44.6878223 C17.7165,47.9304293 19.9086429,50.7307584 22.9732143,51.406779 C24.1290714,53.6158766 26.3588571,54.9931252 28.7857143,55 C30.0102143,55 31,53.975657 31,52.7084049 C31,51.4411529 30.0102143,50.4168099 28.7857143,50.4168099 C28.5731429,50.4122267 28.365,50.3732696 28.1612857,50.3091049 C29.9393571,49.0281033 30.9977857,46.9290022 31,44.6878223 L31,44.6878223 Z" id="Fill-7"></path>
                <path d="M50.9954286,6.30208333 C50.9908571,2.825625 48.184,0.006875 44.7142857,0 L33.2857143,0 C32.024,0 31,1.02666667 31,2.29166667 C31,3.55666667 32.024,4.58333333 33.2857143,4.58333333 L42.4285714,4.58333333 C42.744,4.58333333 43,4.84 43,5.15625 L43,33.8020833 C43,34.1183333 42.744,34.375 42.4285714,34.375 L33.2857143,34.375 C32.024,34.375 31,35.399375 31,36.6666667 C31,37.9339583 32.024,38.9583333 33.2857143,38.9583333 L42.4285714,38.9583333 C42.744,38.9583333 43,39.215 43,39.53125 L43,50.9895833 C43,53.205625 44.7897143,55 47,55 C49.2102857,55 51,53.205625 51,50.9895833 L50.9954286,6.30208333 Z" id="Fill-9"></path>
            </g>
        </g>
    </g>
</svg>