<?xml version="1.0" encoding="UTF-8"?>
<svg width="53px" height="55px" viewBox="0 0 53 55" version="1.1" xmlns="http://www.w3.org/2000/svg" xmlns:xlink="http://www.w3.org/1999/xlink">
    <title>CLEANING</title>
    <defs>
        <polygon id="path-1" points="0 0.120826709 38.9997706 0.120826709 38.9997706 38 0 38"></polygon>
    </defs>
    <g id="Page-1" stroke="none" stroke-width="1" fill="none" fill-rule="evenodd">
        <g id="Landing-Page" transform="translate(-855.000000, -2760.000000)">
            <g id="CLEANING" transform="translate(855.000000, 2760.000000)">
                <g id="Group-3" transform="translate(0.000000, 17.000000)">
                    <mask id="mask-2" fill="white">
                        <use xlink:href="#path-1"></use>
                    </mask>
                    <g id="Clip-2"></g>
                    <path d="M27.9513,7.09977742 C27.2997706,6.31234976 26.3293588,5.85779968 25.3084765,5.86009539 L24.0880059,5.86009539 C23.4548294,5.86009539 22.9409471,5.34585692 22.9409471,4.71224165 L22.9409471,1.26868045 C22.9409471,0.635065183 22.4270647,0.120826709 21.7938882,0.120826709 L17.2056529,0.120826709 C16.5724765,0.120826709 16.0585941,0.635065183 16.0585941,1.26868045 L16.0585941,4.71224165 C16.0585941,5.34585692 15.5447118,5.86009539 14.9115353,5.86009539 L13.6910647,5.86009539 C12.6678882,5.85779968 11.6997706,6.31234976 11.0482412,7.09977742 L2.99818235,16.7647059 C-1.57628824,22.2606296 -0.832994118,30.4218696 4.65682941,34.9995103 C6.98077059,36.9370874 9.91035882,38 12.9363,38 L26.0632412,38 C33.2094176,37.9977043 38.9997744,32.2010429 38.9997744,25.0476184 C38.9974765,22.021876 37.9375941,19.0902576 36.0013588,16.7647059 L27.9513,7.09977742 Z" id="Fill-1" fill="#FFFFFF" mask="url(#mask-2)"></path>
                </g>
                <path d="M43,7 C44.106,7 45,7.896 45,9 C45,10.104 44.106,11 43,11 C41.894,11 41,10.104 41,9 C41,7.896 41.894,7 43,7" id="Fill-4" fill="#FFFFFF"></path>
                <path d="M51,7 C52.106,7 53,7.896 53,9 C53,10.104 52.106,11 51,11 C49.894,11 49,10.104 49,9 C49,7.896 49.894,7 51,7" id="Fill-6" fill="#FFFFFF"></path>
                <path d="M51,0 C52.106,0 53,0.896 53,2 C53,3.104 52.106,4 51,4 C49.894,4 49,3.104 49,2 C49,0.896 49.894,0 51,0" id="Fill-8" fill="#FFFFFF"></path>
                <path d="M51,14 C52.106,14 53,14.896 53,16 C53,17.104 52.106,18 51,18 C49.894,18 49,17.104 49,16 C49,14.896 49.894,14 51,14" id="Fill-10" fill="#FFFFFF"></path>
                <path d="M38,7.94736842 C38,6.66905263 36.9868,5.63157895 35.7333333,5.63157895 L34.6,5.63157895 C33.9744,5.63157895 33.4666667,5.11284211 33.4666667,4.47368421 L33.4666667,3.31578947 C33.4666667,2.03747368 32.4534667,1 31.2,1 L16.4666667,1 C9.58506667,1.00694737 4.0068,6.70610526 4,13.7368421 C4,14.376 4.50773333,14.8947368 5.13333333,14.8947368 L23.5658667,14.8947368 C24.094,14.8947368 24.5518667,15.2698947 24.6697333,15.7955789 C25.5990667,19.9987368 29.2484,22.9884211 33.4666667,23 C34.7201333,23 35.7333333,21.9625263 35.7333333,20.6842105 C35.7333333,19.4058947 34.7201333,18.3684211 33.4666667,18.3684211 C31.7190667,18.3661053 30.1301333,17.3355789 29.3866667,15.7214737 C29.2529333,15.432 29.3730667,15.0869474 29.6564,14.9503158 C29.7334667,14.9132632 29.8150667,14.8947368 29.8989333,14.8947368 L31.1977333,14.8947368 C32.4512,14.8947368 33.4644,13.8572632 33.4644,12.5789474 L33.4644,11.4210526 C33.4644,10.7818947 33.9721333,10.2631579 34.5977333,10.2631579 L35.7310667,10.2631579 C36.9845333,10.2631579 37.9977333,9.228 38,7.94968421 L38,7.94736842 Z" id="Fill-12" fill="#FFFFFF"></path>
            </g>
        </g>
    </g>
</svg>