<?xml version="1.0" encoding="UTF-8"?>
<svg width="55px" height="55px" viewBox="0 0 55 55" version="1.1" xmlns="http://www.w3.org/2000/svg" xmlns:xlink="http://www.w3.org/1999/xlink">
    <title>DENTIST</title>
    <defs>
        <polygon id="path-1" points="0 0.0804892184 29.8597174 0.0804892184 29.8597174 39.9995456 0 39.9995456"></polygon>
        <polygon id="path-3" points="0.0185299228 0 29.7576834 0 29.7576834 30 0.0185299228 30"></polygon>
    </defs>
    <g id="Page-1" stroke="none" stroke-width="1" fill="none" fill-rule="evenodd">
        <g id="Landing-Page" transform="translate(-419.000000, -2760.000000)">
            <g id="DENTIST" transform="translate(419.000000, 2760.000000)">
                <g id="Group-3" transform="translate(0.000000, 15.000000)">
                    <mask id="mask-2" fill="white">
                        <use xlink:href="#path-1"></use>
                    </mask>
                    <g id="Clip-2"></g>
                    <path d="M29.8270143,16.2565261 C29.9398714,15.7916054 29.7547857,15.3037823 29.3620429,15.0358231 C24.8206714,11.9004717 21.9337857,6.83673016 21.5207286,1.27829478 C21.4755857,0.64847619 20.9338714,0.174394558 20.3131571,0.220199546 C20.2770429,0.224780045 20.2386714,0.227070295 20.2025571,0.233941043 C18.6451286,0.501900227 17.1892714,1.1958458 15.9929857,2.2424898 C15.5686429,2.6135102 14.9411571,2.6135102 14.5168143,2.2424898 C12.9277857,0.845437642 10.8918429,0.0782040816 8.78818571,0.0804892184 C3.87212857,0.0782040816 0.0191857143,4.79840816 0.0191857143,10.8217642 C-0.174928571,15.0106304 1.09358571,19.1330794 3.5945,22.4699728 C3.84504286,22.7791565 3.91727143,23.1982721 3.78861429,23.5761633 C2.8361,26.3817188 2.35758571,29.3269796 2.36887143,32.2928526 C2.36661429,34.1548254 2.5517,36.0145079 2.92187143,37.8398367 C3.18144286,39.0971837 4.27164286,39.9949615 5.53564286,39.9995456 C6.93281429,40.0018322 8.10652857,38.934576 8.25775714,37.5237823 C8.83784286,32.1371156 11.8443571,28.0719229 15.2549,28.0719229 C18.6654429,28.0719229 21.6719571,32.1371156 22.2520429,37.5260726 C22.4032714,38.934576 23.5769857,40.0018322 24.9741571,39.9995456 C26.2381571,39.9949615 27.3283571,39.0971837 27.5879286,37.8398367 C27.9581,36.0145079 28.1431857,34.1548254 28.1409286,32.2928526 C28.1522143,29.3269796 27.6737,26.3817188 26.7211857,23.5761633 C26.5902714,23.2005624 26.6625,22.783737 26.9107857,22.472263 C28.3305286,20.6492245 29.3281857,18.523873 29.8270143,16.2565261" id="Fill-1" fill="#FFFFFF" mask="url(#mask-2)"></path>
                </g>
                <g id="Group-6" transform="translate(25.000000, 0.000000)">
                    <mask id="mask-4" fill="white">
                        <use xlink:href="#path-3"></use>
                    </mask>
                    <g id="Clip-5"></g>
                    <path d="M22.835499,12.3553846 L16.1921786,21.2976923 C14.8630569,23.0815385 12.351223,23.4415385 10.5828736,22.1030769 C10.4296014,21.9876923 10.2877674,21.8607692 10.1505087,21.7246154 L6.71904151,18.2630769 C5.82457239,17.3607692 5.82686004,15.9 6.72132915,15 C7.61579826,14.0976923 9.06158977,14.0976923 9.95605888,15 L11.9943504,17.0538462 C12.4381535,17.5038462 13.1610492,17.5061538 13.6117153,17.0561538 C13.6483176,17.0169231 13.6849199,16.9753846 13.7192346,16.9315385 L19.1752674,9.58846154 C19.9324778,8.56846154 21.3668311,8.36307692 22.3802577,9.12692308 C23.3891091,9.89076923 23.5949971,11.3376923 22.835499,12.3576923 L22.835499,12.3553846 Z M14.888221,0 C6.6778639,0 0.0185299228,6.71538462 0.0185299228,15 C0.0185299228,23.2846154 6.6778639,30 14.888221,30 C23.1008658,30 29.7579122,23.2846154 29.7579122,15 C29.7464739,6.72 23.0962905,0.00923076923 14.888221,0 L14.888221,0 Z" id="Fill-4" fill="#FFFFFF" mask="url(#mask-4)"></path>
                </g>
            </g>
        </g>
    </g>
</svg>