<?xml version="1.0" encoding="UTF-8"?>
<svg width="55px" height="55px" viewBox="0 0 55 55" version="1.1" xmlns="http://www.w3.org/2000/svg" xmlns:xlink="http://www.w3.org/1999/xlink">
    <title>DINING</title>
    <defs>
        <polygon id="path-1" points="0.531518137 0 43.4683195 0 43.4683195 24.9997803 0.531518137 24.9997803"></polygon>
    </defs>
    <g id="Page-1" stroke="none" stroke-width="1" fill="none" fill-rule="evenodd">
        <g id="Landing-Page" transform="translate(-966.000000, -2760.000000)">
            <g id="DINING" transform="translate(966.000000, 2760.000000)">
                <path d="M40.4666667,47.5 L20.0666667,47.5 C19.4410667,47.5 18.9333333,47.0072 18.9333333,46.4 C18.9333333,45.7928 19.4410667,45.3 20.0666667,45.3 L25.7333333,45.3 C26.3589333,45.3 26.8666667,44.8072 26.8666667,44.2 C26.8666667,42.9834 25.8512,42 24.6,42 L12.1333333,42 C11.5077333,42 11,42.4928 11,43.1 L11,51.9 C11,52.5072 11.5077333,53 12.1333333,53 L43.8666667,53 C44.4922667,53 45,52.5072 45,51.9 C45,49.4712 42.9690667,47.5 40.4666667,47.5" id="Fill-1" fill="#FFFFFF"></path>
                <g id="Group-5" transform="translate(5.000000, 0.000000)">
                    <mask id="mask-2" fill="white">
                        <use xlink:href="#path-1"></use>
                    </mask>
                    <g id="Clip-4"></g>
                    <path d="M10.4608276,15.6815909 C12.8052546,13.7975 15.5740438,12.4861364 18.5353032,11.8520455 C19.4744654,11.6543182 20.402033,12.2384091 20.6037789,13.1588636 C20.8055249,14.0793182 20.2095627,14.9861364 19.2704005,15.1861364 C16.8471303,15.7043182 14.5838654,16.7793182 12.6684384,18.3225 C11.9240654,18.9202273 10.8272168,18.8134091 10.2173411,18.0838636 C9.60746541,17.3543182 9.71645459,16.2793182 10.4608276,15.6815909 M1.69299514,24.9997727 L42.3065411,24.9997727 C42.9465627,25.0020455 43.4660005,24.4929545 43.4683195,23.8656818 C43.4683195,23.7793182 43.4590438,23.6929545 43.4381735,23.6088636 C41.5760816,15.6543182 35.3034059,9.40659091 27.2196546,7.45431818 C26.5958654,7.30659091 26.2132438,6.69295455 26.3662924,6.08386364 C26.3732492,6.04977273 26.3825249,6.01795455 26.3941195,5.98386364 C26.5564438,5.52022727 26.6376059,5.03386364 26.6376059,4.54522727 C26.6376059,2.03613636 24.5621735,-0.000227272727 21.9997681,-0.000227272727 C19.4396816,-0.000227272727 17.3619303,2.03613636 17.3619303,4.54522727 C17.3619303,5.03386364 17.4430924,5.52022727 17.6054168,5.98386364 C17.8118005,6.57931818 17.4871519,7.2225 16.8819141,7.42704545 C16.8471303,7.43840909 16.8146654,7.44522727 16.7798816,7.45431818 C8.69613027,9.40659091 2.42345459,15.6543182 0.561362703,23.6088636 C0.41758973,24.2202273 0.807168108,24.8293182 1.4309573,24.9702273 C1.51907622,24.9906818 1.60487622,24.9997727 1.69299514,24.9997727" id="Fill-3" fill="#FFFFFF" mask="url(#mask-2)"></path>
                </g>
                <path d="M53.28125,27 L1.71875,27 C0.77,27 0,27.784 0,28.75 C0,29.716 0.77,30.5 1.71875,30.5 L3.63458333,30.5 C3.93708333,30.5 4.228125,30.6236667 4.44354167,30.8406667 L6.875,33.3163333 C7.30583333,33.755 7.88791667,34 8.49520833,34 L46.5047917,34 C47.114375,34 47.6941667,33.755 48.125,33.3163333 L50.5564583,30.8406667 C50.771875,30.6236667 51.0629167,30.5 51.3677083,30.5 L53.28125,30.5 C54.23,30.5 55,29.716 55,28.75 C55,27.784 54.23,27 53.28125,27" id="Fill-6" fill="#FFFFFF"></path>
                <path d="M3.9375,51.5714286 C3.006,51.5714286 2.25,50.8034286 2.25,49.8571429 C2.25,48.9108571 3.006,48.1428571 3.9375,48.1428571 C4.869,48.1428571 5.625,48.9108571 5.625,49.8571429 C5.625,50.8034286 4.869,51.5714286 3.9375,51.5714286 M6.75,39 L2.25,39 C1.008,39 0,40.0217143 0,41.2857143 L0,52.7142857 C0,53.9782857 1.008,55 2.25,55 L6.75,55 C7.992,55 9,53.9782857 9,52.7142857 L9,41.2857143 C9,40.0217143 7.992,39 6.75,39" id="Fill-8" fill="#FFFFFF"></path>
            </g>
        </g>
    </g>
</svg>