<svg xmlns="http://www.w3.org/2000/svg" width="389.9" height="240.6" viewBox="0 0 389.9 240.6"><defs><style>.cls-1{fill:#fff;}.cls-2{fill:#df3476;}</style></defs><g id="Layer_2" data-name="Layer 2"><path class="cls-1" d="M80.3,81.9C60.7,69.2,35.7,69,18.1,81.4,9.1,87.8,2.7,98.3.7,110.2s.5,23.7,7.1,32.9a10.4,10.4,0,0,0,14.6,2.5A10.5,10.5,0,0,0,24.9,131c-3.4-4.7-4.6-10.8-3.5-17.2s4.4-12.1,8.8-15.2c10.5-7.4,26.4-7,38.7.9,5.8,3.8,18.9,14.9,14.7,36.4v.4c-1.4,9-3.8,20.6-5.2,23.7-.2.4-.3.9-.5,1.3-3.4,11.7-10.3,18.5-21.2,21a34.9,34.9,0,0,1-6.8,1l12.3-52.4a10.6,10.6,0,0,0-7.8-12.7,10.5,10.5,0,0,0-12.6,7.9L26.6,190.4a10.5,10.5,0,0,0,7.9,12.7,58.5,58.5,0,0,0,12.8,1.3A63.6,63.6,0,0,0,60.4,203c13.2-2.8,30.2-11.1,37.5-35.2,3.1-7.5,5.8-24.2,6.4-28.1C108.8,116.2,99.9,94.6,80.3,81.9Z"/><path class="cls-1" d="M359.7,49.7a10.4,10.4,0,0,0-12.4,8.2l-7.4,35.4c0,.2-.1.3-.1.5-1,4.7-2.1,9.1-3.2,13.4a11.6,11.6,0,0,1-13,6.6c-7.2-1.3-10.5-7.9-9-17.5.8-5.1,1.1-7.3,1.3-8.7l1-5.4c.6-2.6,1.5-7.1,3.1-15A10.5,10.5,0,0,0,299.4,63l-3,15a50.4,50.4,0,0,0-1.2,6.6c-.2,1.3-.6,3.5-1.3,8.4-3.9,24.4,10.6,38.6,25.9,41.5a39.4,39.4,0,0,0,6,.5h2.4c-8.5,23-18.6,38-30.6,45.3-15.6,9.5-34.6,6.7-56.6,3.4-36.5-5.5-82-12.3-125.9,39.8a10.5,10.5,0,0,0,16.1,13.5c36.3-43.1,70.5-38,106.7-32.5,23.9,3.5,48.6,7.2,70.6-6.2s36.6-39.9,48.1-84.1a33.9,33.9,0,0,0,1.7-5.9l9.5-46.1A10.5,10.5,0,0,0,359.7,49.7Z"/><path class="cls-1" d="M133.1,142.1c.1-.8.6-2.9,1.8-8.2a10.7,10.7,0,0,0-8-12.6,10.5,10.5,0,0,0-12.5,8c-1,4.2-1.5,6.6-1.8,7.9a9.6,9.6,0,0,1-.3,1.5c0,.4-.1.8-.1,1.1-3.6,24.1,10.9,38,26,40.9a39.4,39.4,0,0,0,6,.5c13.9,0,28.6-8.5,32.5-26.7h0l2.1-10.2a45.2,45.2,0,0,0,17.1-4.2c.7,18.4,13.3,29.2,26.3,31.6a31.5,31.5,0,0,0,6.1.6,34,34,0,0,0,18.7-5.7,35.9,35.9,0,0,0,7.6-6.9,37.3,37.3,0,0,0,8.8,5.4,32.6,32.6,0,0,0,12.6,2.5A33.1,33.1,0,0,0,302.7,154a10.4,10.4,0,0,0-2.4-14.6,10.5,10.5,0,0,0-14.7,2.3c-3.5,5-9.8,5.7-14.2,3.9s-7.7-7.6-6.9-15.2l.8-5.2c3.4-19.6,13.3-70.3,15.9-83.5,28.3-1.5,52.7-7.4,65.3-25.1A10.5,10.5,0,1,0,329.4,4.4C316.2,23,271.5,21.8,232.1,20.7c-17.4-.5-35.4-.9-51.3.1-51.4,3.3-66.5,29.3-70.3,38.7a11.4,11.4,0,0,0-.9,2.6c-.1.4-.2.7-.2.8h.1a6.6,6.6,0,0,0-.1,1.4,10.4,10.4,0,0,0,20.2,3.4h.2a.3.3,0,0,1-.1.2c.3-.9,7.2-23.3,52.4-26.3,9.7-.6,20.4-.6,31.2-.4-1.5,7.9-8.5,43.5-13.2,68.5-5.6,7.4-11.5,11-16.9,12.5l.5-2.4c4.8-23.1-7.7-39.1-22.4-43s-25.9,3.2-30,15.9c-5.6,17.4,4.2,36.9,23.4,46.4a20.7,20.7,0,0,0,3.4,1.5l-1.9,9.4c-1.9,8.3-8.6,11-14.2,9.9-7.2-1.3-10.5-7.9-9-17.5A.6.6,0,0,1,133.1,142.1Zm84.1-8.3c2.9-18.3,16.9-89.3,17-90a7.1,7.1,0,0,0,.2-2c8.5.2,17,.4,25.3.4-3.7,19.2-13.3,68-15.7,83.2l-.3,2.2-1.6,10.6c-2.4,10.4-10,13.9-16.1,12.8S215.7,143.2,217.2,133.8ZM151.3,99.3a3,3,0,0,1,3-2.4l1.6.3c5.1,1.3,9.4,7.7,7.2,18.5l-.8,3.8C154.9,115.1,148.8,107,151.3,99.3Z"/><circle class="cls-2" cx="375.7" cy="135.3" r="14.2" transform="translate(14.4 305.3) rotate(-45)"/></g></svg>