<svg xmlns="http://www.w3.org/2000/svg" width="700" height="700" viewBox="0 0 700 700"><defs><style>.cls-1{fill:#30213c;}.cls-2{fill:#df3476;}</style></defs><g id="Layer_2" data-name="Layer 2"><path class="cls-1" d="M235.4,311.6c-19.7-12.7-44.7-12.9-62.2-.5-9.1,6.4-15.4,16.9-17.5,28.8s.5,23.6,7.1,32.9a10.5,10.5,0,1,0,17.1-12.1c-3.3-4.7-4.5-10.9-3.5-17.3s4.4-12,8.9-15.2c10.4-7.4,26.3-7,38.6,1,5.9,3.8,19,14.9,14.8,36.4,0,.1-.1.3-.1.4-1.4,8.9-3.7,20.5-5.1,23.7a6.9,6.9,0,0,0-.5,1.3c-3.4,11.6-10.4,18.5-21.3,21a43,43,0,0,1-6.8,1l12.4-52.4a10.5,10.5,0,0,0-20.5-4.9l-15.2,64.4a11.2,11.2,0,0,0,1.3,8,10.9,10.9,0,0,0,6.6,4.7,61.9,61.9,0,0,0,12.8,1.2,64.6,64.6,0,0,0,13.2-1.3c13.1-2.8,30.2-11.2,37.5-35.2,3-7.6,5.7-24.2,6.3-28.1C263.9,345.8,254.9,324.2,235.4,311.6Z"/><path class="cls-1" d="M514.7,279.4a10.5,10.5,0,0,0-12.4,8.1L495,323a.9.9,0,0,0-.1.5c-1.1,4.6-2.1,9.1-3.2,13.4a11.7,11.7,0,0,1-13,6.6c-7.2-1.4-10.6-7.9-9-17.6.8-5,1.1-7.3,1.3-8.6a41,41,0,0,1,1-5.4c.5-2.7,1.4-7.1,3-15.1a10.5,10.5,0,0,0-20.6-4.1c-1.5,7.9-2.4,12.4-3,15s-.9,4.3-1.2,6.6-.5,3.5-1.3,8.3c-3.9,24.5,10.7,38.7,25.9,41.5a30.8,30.8,0,0,0,6.1.6h2.3c-8.4,23-18.6,38-30.6,45.3-15.5,9.5-34.5,6.7-56.5,3.4-36.6-5.5-82.1-12.3-125.9,39.8a10.5,10.5,0,0,0,1.2,14.8,10.9,10.9,0,0,0,6.8,2.4,10.3,10.3,0,0,0,8-3.7c36.3-43.1,70.5-38,106.8-32.6,23.8,3.6,48.5,7.3,70.6-6.2s36.5-39.8,48-84a50.8,50.8,0,0,0,1.8-5.9l9.5-46.1A10.6,10.6,0,0,0,514.7,279.4Z"/><path class="cls-1" d="M288.1,371.8c.2-.8.6-3,1.8-8.3a10.5,10.5,0,0,0-20.5-4.5l-1.7,7.9a7,7,0,0,0-.3,1.4c-.1.4-.1.8-.2,1.2-3.5,24,10.9,38,26,40.8a30.8,30.8,0,0,0,6.1.6c13.8,0,28.5-8.6,32.4-26.7h.1l2-10.2a47.1,47.1,0,0,0,17.1-4.2c.8,18.4,13.3,29.2,26.3,31.6a32.6,32.6,0,0,0,6.2.6,34,34,0,0,0,18.7-5.7,36.2,36.2,0,0,0,7.6-7,31.6,31.6,0,0,0,8.8,5.5,33.9,33.9,0,0,0,12.5,2.4,32.9,32.9,0,0,0,26.7-13.4,10.6,10.6,0,0,0-2.4-14.7,10.4,10.4,0,0,0-14.6,2.4,12.1,12.1,0,0,1-14.2,3.9c-5.3-2.2-7.7-7.6-6.9-15.2l.8-5.2c3.4-19.6,13.3-70.3,15.9-83.5,28.3-1.6,52.7-7.4,65.3-25.2a10.5,10.5,0,0,0-17.2-12.1c-13.1,18.6-57.8,17.3-97.2,16.3-17.4-.5-35.4-1-51.4.1-51.3,3.3-66.4,29.2-70.2,38.7a8.2,8.2,0,0,0-1,2.6c-.1.4-.2.7-.2.8h.1a6.2,6.2,0,0,0-.1,1.3,10.4,10.4,0,0,0,20.3,3.5h.1v.2c.3-1,7.2-23.3,52.4-26.3,9.6-.6,20.3-.6,31.2-.5-1.6,8-8.6,43.6-13.2,68.6-5.6,7.3-11.5,11-17,12.5l.5-2.4c4.8-23.1-7.6-39.1-22.4-43-13.2-3.5-25.8,3.2-29.9,15.9-5.6,17.4,4.2,36.9,23.4,46.4l3.3,1.5-1.9,9.4c-1.8,8.3-8.6,10.9-14.1,9.9-7.2-1.4-10.6-7.9-9-17.6Zm84.1-8.4c3-18.2,17-89.2,17.1-89.9a15,15,0,0,0,.2-2c8.5.2,16.9.4,25.3.4-3.8,19.2-13.3,68-15.7,83.2l-.3,2.1-1.7,10.7c-2.3,10.4-9.9,13.9-16,12.8S370.7,372.9,372.2,363.4ZM306.4,329a2.8,2.8,0,0,1,2.9-2.4l1.7.3c5,1.3,9.4,7.7,7.2,18.5l-.8,3.8C310,344.8,303.9,336.7,306.4,329Z"/><circle class="cls-2" cx="530.8" cy="365" r="14.2" transform="translate(-102.6 482.2) rotate(-45)"/></g></svg>