<?xml version="1.0" encoding="UTF-8"?>
<svg width="45px" height="55px" viewBox="0 0 45 55" version="1.1" xmlns="http://www.w3.org/2000/svg" xmlns:xlink="http://www.w3.org/1999/xlink">
    <title>GENERAL HEALTH</title>
    <defs>
        <polygon id="path-1" points="1.05902288 0.059625 34.9413882 0.059625 34.9413882 53 1.05902288 53"></polygon>
    </defs>
    <g id="Page-1" stroke="none" stroke-width="1" fill="none" fill-rule="evenodd">
        <g id="Landing-Page" transform="translate(-532.000000, -2760.000000)">
            <g id="GENERAL-HEALTH" transform="translate(532.000000, 2760.000000)">
                <g id="Group-3" transform="translate(5.000000, 2.000000)">
                    <mask id="mask-2" fill="white">
                        <use xlink:href="#path-1"></use>
                    </mask>
                    <g id="Clip-2"></g>
                    <path d="M31.3180941,25.4282958 C30.2719765,25.9759625 29.8505647,27.3031708 30.3736235,28.3918792 C30.5938588,28.8512125 30.7082118,29.3591292 30.7060941,29.8714625 C30.7060941,32.6208375 25.9180941,33.9767542 21.0475059,35.0500042 C20.8844471,35.0875458 20.7150353,35.0389625 20.5900941,34.9263375 C20.4630353,34.8137125 20.3973882,34.6414625 20.4100941,34.4692125 L20.7404471,29.8847125 C21.5557412,18.5294625 22.2355059,5.4517125 22.2355059,4.47562917 C22.2355059,2.03762917 20.3380941,0.0589625 18.0002118,0.0589625 C15.6602118,0.0589625 13.7649176,2.03762917 13.7649176,4.47562917 C13.7649176,5.4517125 14.4446824,18.5294625 15.2599765,29.8847125 L15.5903294,34.4692125 C15.6115059,34.7761708 15.3891529,35.0389625 15.0948,35.0610458 C15.0482118,35.0632542 15.0016235,35.0610458 14.9550353,35.0500042 C10.0802118,33.9745458 5.29432941,32.6208375 5.29432941,29.8714625 C5.29221176,29.3591292 5.40656471,28.8512125 5.6268,28.3918792 C6.15409412,27.3031708 5.73056471,25.9737542 4.68656471,25.4238792 C3.64044706,24.8762125 2.36774118,25.3134625 1.84044706,26.4043792 C1.32585882,27.4820458 1.05691765,28.6679208 1.05902288,29.8714625 C1.05902288,34.1379625 4.26727059,36.3838375 8.41150588,37.8413375 C8.68891765,37.9362958 8.83715294,38.2498792 8.74609412,38.5391708 C8.70585882,38.6628375 8.62538824,38.7688375 8.51738824,38.8350875 C6.55644706,39.8575458 5.31127059,41.9400042 5.29432941,44.2256292 C5.29432941,47.8848375 8.13832941,50.8506292 11.6472706,50.8506292 C12.8162118,50.8506292 13.7649176,49.8635042 13.7649176,48.6422958 C13.7649176,47.4210875 12.8162118,46.4339625 11.6472706,46.4339625 C10.4783294,46.4339625 9.52962353,45.4468375 9.52962353,44.2256292 C9.52962353,42.7062958 12.2444471,41.6551292 15.4399765,40.8270042 C15.7216235,40.7541292 16.0096235,40.9330042 16.0795059,41.2267125 C16.0879765,41.2554208 16.0922118,41.2863375 16.0943294,41.3172542 C16.3929176,45.1575458 16.6872706,48.4545875 16.9413882,52.0431292 C17.0197412,52.6482125 17.5533882,53.0722125 18.1315059,52.9905042 C18.6058588,52.9242542 18.9764471,52.5355875 19.0399765,52.0431292 C19.3046824,48.4545875 19.5969176,45.1575458 19.8870353,41.3172542 C19.9103294,41.0147125 20.1623294,40.7894625 20.4524471,40.8115458 C20.4842118,40.8137542 20.5138588,40.8181708 20.5435059,40.8270042 C23.7559765,41.6551292 26.4708,42.7062958 26.4708,44.2256292 C26.4708,45.4468375 25.5242118,46.4339625 24.3531529,46.4339625 C23.1820941,46.4339625 22.2355059,47.4210875 22.2355059,48.6422958 C22.2355059,49.8635042 23.1820941,50.8506292 24.3531529,50.8506292 C27.8620941,50.8506292 30.7060941,47.8848375 30.7060941,44.2256292 C30.6891529,41.9400042 29.4439765,39.8575458 27.4809176,38.8350875 C27.2310353,38.6782958 27.1526824,38.3382125 27.3030353,38.0776292 C27.3686824,37.9650042 27.4703294,37.8810875 27.5889176,37.8413375 C31.7331529,36.3838375 34.9413882,34.1379625 34.9413882,29.8714625 C34.9413882,28.6723375 34.6724471,27.4886708 34.1599765,26.4132125 C33.6369176,25.3245042 32.3642118,24.8828375 31.3180941,25.4282958" id="Fill-1" fill="#FFFFFF" mask="url(#mask-2)"></path>
                </g>
                <path d="M10.6657239,16.1848855 C10.6657239,16.7913902 10.1878995,17.2836259 9.59915155,17.2836259 L6.21811706,17.2836259 C5.6293691,17.2836259 5.15154466,17.7758617 5.15154466,18.3823664 C5.15154466,18.6460641 5.24326989,18.8987744 5.40965518,19.0987452 C8.04622214,22.2675126 11.4656532,24.6429895 15.3031807,25.9724655 C15.4716992,26.0296 15.6572827,25.9966377 15.7980703,25.8845662 C15.9367247,25.7724947 16.0113848,25.5966962 15.9985859,25.4143053 C15.3927728,16.0881963 14.9320135,7.2015835 14.9320135,6.29622137 C14.9320135,6.23908686 14.9469455,6.1885448 14.9490787,6.1314103 C14.1896791,4.23718175 12.3957044,3 10.4033471,3 L1.06657239,3 C0.477824433,3 0,3.49223572 0,4.09874046 C0,5.25901038 0.0895920811,6.41708282 0.262376809,7.56416785 C0.343436311,8.09815572 0.791396717,8.49370228 1.31615033,8.49370228 L6.39943437,8.49370228 C6.98818233,8.49370228 7.46600676,8.98593801 7.46600676,9.59244274 C7.46600676,10.1989475 6.98818233,10.6911832 6.39943437,10.6911832 L2.42325248,10.6911832 C1.83450452,10.6911832 1.35668009,11.1834189 1.35668009,11.7899236 C1.35668009,11.919575 1.37801153,12.0492264 1.42280757,12.1722853 C1.70651583,12.9589835 2.03288698,13.7302993 2.39765474,14.4818378 C2.57897205,14.853212 2.9480061,15.086145 3.35117046,15.086145 L9.59915155,15.086145 C10.1878995,15.086145 10.6657239,15.5783807 10.6657239,16.1848855" id="Fill-4" fill="#FFFFFF"></path>
                <path d="M37.5337801,9.59244274 C37.5337801,8.98593801 38.0116182,8.49370228 38.6003829,8.49370228 L43.6838121,8.49370228 C44.2107139,8.49370228 44.6565539,8.09815572 44.7376157,7.56416785 C44.9125386,6.41708282 45,5.25901038 45,4.09874046 C45,3.49223572 44.5221619,3 43.9333972,3 L34.5963559,3 C32.6039417,3 30.812049,4.23498427 30.0504945,6.1314103 C30.0504945,6.1885448 30.0675602,6.23908686 30.0675602,6.29622137 C30.0675602,7.20597847 29.6046545,16.0903938 29.0009573,25.4143053 C28.9902913,25.5988937 29.0692199,25.7746922 29.2142779,25.8845662 C29.3550695,25.9966377 29.5406584,26.0296 29.7091816,25.9724655 C33.5489519,24.6429895 36.9684806,22.2675126 39.6051228,19.0987452 C39.9890998,18.6394717 39.9379029,17.9450677 39.4920629,17.5495211 C39.2936748,17.3759201 39.0419565,17.2814284 38.7817054,17.2836259 L35.4005744,17.2836259 C34.8118096,17.2836259 34.3339716,16.7913902 34.3339716,16.1848855 C34.3339716,15.5783807 34.8118096,15.086145 35.4005744,15.086145 L41.6487339,15.086145 C42.0519097,15.086145 42.4209543,14.853212 42.6022768,14.4818378 C42.9691882,13.7302993 43.2934354,12.9589835 43.5771518,12.1722853 C43.7819396,11.6031378 43.5003564,10.9702633 42.9478561,10.7593051 C42.8283966,10.7153555 42.7046707,10.6911832 42.5766783,10.6911832 L38.6003829,10.6911832 C38.0116182,10.6911832 37.5337801,10.1989475 37.5337801,9.59244274" id="Fill-6" fill="#FFFFFF"></path>
            </g>
        </g>
    </g>
</svg>