<?xml version="1.0" encoding="UTF-8"?>
<svg width="12px" height="12px" viewBox="0 0 12 12" version="1.1" xmlns="http://www.w3.org/2000/svg" xmlns:xlink="http://www.w3.org/1999/xlink">
    <!-- Generator: Sketch 63.1 (92452) - https://sketch.com -->
    <title>ic-search-24px</title>
    <desc>Created with Sketch.</desc>
    <g id="Symbols" stroke="none" stroke-width="1" fill="none" fill-rule="evenodd">
        <g id="form/Search" transform="translate(-366.000000, -16.000000)">
            <g id="ic-search-24px" transform="translate(364.000000, 14.000000)">
                <path d="M10.5763293,9.54716981 L10.0343053,9.54716981 L9.84219554,9.3619211 C10.5145798,8.57975986 10.9193825,7.56432247 10.9193825,6.45969125 C10.9193825,3.99656947 8.92281304,2 6.45969125,2 C3.99656947,2 2,3.99656947 2,6.45969125 C2,8.92281304 3.99656947,10.9193825 6.45969125,10.9193825 C7.56432247,10.9193825 8.57975986,10.5145798 9.3619211,9.84219554 L9.54716981,10.0343053 L9.54716981,10.5763293 L12.9777015,14 L14,12.9777015 L10.5763293,9.54716981 Z M6.45969125,9.54716981 C4.75128645,9.54716981 3.37221269,8.16809605 3.37221269,6.45969125 C3.37221269,4.75128645 4.75128645,3.37221269 6.45969125,3.37221269 C8.16809605,3.37221269 9.54716981,4.75128645 9.54716981,6.45969125 C9.54716981,8.16809605 8.16809605,9.54716981 6.45969125,9.54716981 Z" id="Shape" fill="#FFFFFF" fill-rule="nonzero"></path>
                <polygon id="Path" points="0 0 16 0 16 16 0 16"></polygon>
            </g>
        </g>
    </g>
</svg>