<?xml version="1.0" encoding="UTF-8"?>
<svg width="24px" height="24px" viewBox="0 0 24 24" version="1.1" xmlns="http://www.w3.org/2000/svg" xmlns:xlink="http://www.w3.org/1999/xlink">
    <!-- Generator: Sketch 63.1 (92452) - https://sketch.com -->
    <title>Icon / Logout</title>
    <desc>Created with Sketch.</desc>
    <g id="Icon-/-Logout" stroke="none" stroke-width="1" fill="none" fill-rule="evenodd">
        <g id="sign-out-alt-solid" transform="translate(0.000000, 2.500000)" fill="#FFFFFF" fill-rule="nonzero">
            <path d="M23.6666667,10 L15.6666667,18 C14.952381,18.7142857 13.7142857,18.2142857 13.7142857,17.1904762 L13.7142857,12.6190476 L7.23809524,12.6190476 C6.6047619,12.6190476 6.0952381,12.1095238 6.0952381,11.4761905 L6.0952381,6.9047619 C6.0952381,6.27142857 6.6047619,5.76190476 7.23809524,5.76190476 L13.7142857,5.76190476 L13.7142857,1.19047619 C13.7142857,0.171428571 14.947619,-0.333333333 15.6666667,0.380952381 L23.6666667,8.38095238 C24.1095238,8.82857143 24.1095238,9.55238095 23.6666667,10 Z M9.14285714,17.7619048 L9.14285714,15.8571429 C9.14285714,15.5428571 8.88571429,15.2857143 8.57142857,15.2857143 L4.57142857,15.2857143 C3.72857143,15.2857143 3.04761905,14.6047619 3.04761905,13.7619048 L3.04761905,4.61904762 C3.04761905,3.77619048 3.72857143,3.0952381 4.57142857,3.0952381 L8.57142857,3.0952381 C8.88571429,3.0952381 9.14285714,2.83809524 9.14285714,2.52380952 L9.14285714,0.619047619 C9.14285714,0.304761905 8.88571429,0.0476190476 8.57142857,0.0476190476 L4.57142857,0.0476190476 C2.04761905,0.0476190476 0,2.0952381 0,4.61904762 L0,13.7619048 C0,16.2857143 2.04761905,18.3333333 4.57142857,18.3333333 L8.57142857,18.3333333 C8.88571429,18.3333333 9.14285714,18.0761905 9.14285714,17.7619048 Z" id="Shape"></path>
        </g>
    </g>
</svg>