<?xml version="1.0" encoding="UTF-8"?>
<svg width="442px" height="116px" viewBox="0 0 442 116" version="1.1" xmlns="http://www.w3.org/2000/svg" xmlns:xlink="http://www.w3.org/1999/xlink">
    <title>Group 16</title>
    <defs>
        <polygon id="path-1" points="0.395773913 0.18112891 69.7864696 0.18112891 69.7864696 91.3615691 0.395773913 91.3615691"></polygon>
    </defs>
    <g id="Page-1" stroke="none" stroke-width="1" fill="none" fill-rule="evenodd">
        <g id="SLIDE-1-Copy" transform="translate(-544.000000, -334.000000)">
            <g id="Group-16" transform="translate(544.000000, 334.000000)">
                <polygon id="Fill-1" fill="#FF8811" points="0 0 0 95 17.6706524 95 17.6706524 86.3058919 29.8796574 70.3141167 43.8232919 95 64 95 41.1889736 55.4648285 64 27.1614752 43.8232919 27.1614752 17.6706524 59.9062778 17.6706524 0"></polygon>
                <g id="Group-15" transform="translate(64.000000, 0.000000)">
                    <path d="M52.3508696,61.3050232 C52.3508696,58.9198117 51.8967826,56.6087933 50.9873913,54.3719677 C50.078,52.1363685 48.8405217,50.1552328 47.2767826,48.4303999 C45.7118261,46.7049539 43.8833043,45.3216539 41.79,44.2768209 C39.6973043,43.2338274 37.4664348,42.7120241 35.0986087,42.7120241 C32.7301739,42.7120241 30.5005217,43.1173261 28.4066087,43.9254774 C26.313913,44.7354683 24.4951304,45.9286871 22.952087,47.5039078 C21.4078261,49.0803547 20.1928696,51.0289927 19.3047826,53.3498218 C18.4166957,55.6718773 17.9723478,58.3238155 17.9723478,61.3050232 C17.9723478,64.2868441 18.4166957,66.9387822 19.3047826,69.2602245 C20.1928696,71.58228 21.4078261,73.5303048 22.952087,75.1061386 C24.4951304,76.6825855 26.313913,77.8751913 28.4066087,78.6839558 C30.5005217,79.4939466 32.7301739,79.8980222 35.0986087,79.8980222 C37.4664348,79.8980222 39.6973043,79.3774453 41.79,78.3332254 C43.8833043,77.2890056 45.7118261,75.9050925 47.2767826,74.1796464 C48.8405217,72.4548136 50.078,70.4736778 50.9873913,68.2374655 C51.8967826,66.0012531 52.3508696,63.6914609 52.3508696,61.3050232 L52.3508696,61.3050232 Z M69.7936522,96.1272707 L65.6076522,96.1272707 L58.8846087,86.7348108 C57.2344348,88.2260278 55.4905217,89.620978 53.6516522,90.9196612 C51.8121739,92.2195708 49.8777391,93.3477942 47.8477391,94.3061709 C45.8183478,95.2645476 43.7347826,96.0211931 41.600087,96.574881 C39.4641739,97.1273426 37.2972174,97.4051063 35.0986087,97.4051063 C30.3197391,97.4051063 25.8269565,96.5957286 21.6202609,94.9769733 C17.4123478,93.358218 13.7333913,91.0055043 10.5833913,87.9163796 C7.43278261,84.8284812 4.94808696,81.0483196 3.13113043,76.5752817 C1.31173913,72.102857 0.402956522,67.0135883 0.402956522,61.3050232 C0.402956522,55.9802992 1.31173913,51.0927619 3.13113043,46.6411847 C4.94808696,42.1908339 7.43278261,38.3671377 10.5833913,35.1725486 C13.7333913,31.9779595 17.4123478,29.4964812 21.6202609,27.7287268 C25.8269565,25.9615855 30.3197391,25.0767886 35.0986087,25.0767886 C37.2972174,25.0767886 39.4751304,25.3545523 41.6317391,25.907627 C43.7883478,26.4619281 45.8810435,27.2283842 47.9110435,28.2076086 C49.9410435,29.1880592 51.8754783,30.3383566 53.7143478,31.6578874 C55.5550435,32.9792578 57.2764348,34.4054793 58.8846087,35.9390047 L65.6076522,27.8243805 L69.7936522,27.8243805 L69.7936522,96.1272707 Z" id="Fill-2" fill="#FF8811"></path>
                    <path d="M133.539243,61.3050232 C133.539243,58.664122 133.083939,56.2047176 132.175765,53.9249705 C131.265765,51.6470629 130.028287,49.676351 128.464548,48.0146741 C126.9002,46.3536104 125.071678,45.0549272 122.977765,44.117398 C120.88507,43.1804821 118.6542,42.7120241 116.286374,42.7120241 C113.917939,42.7120241 111.688287,43.2338274 109.594983,44.2768209 C107.502287,45.3216539 105.672548,46.7049539 104.1082,48.4303999 C102.543243,50.1552328 101.31733,52.1363685 100.429243,54.3719677 C99.5411565,56.6087933 99.0974174,58.9198117 99.0974174,61.3050232 C99.0974174,63.9465375 99.5411565,66.3955181 100.429243,68.6525781 C101.31733,70.9108644 102.543243,72.8693131 104.1082,74.5309899 C105.672548,76.1920536 107.502287,77.5017738 109.594983,78.4607637 C111.688287,79.4191405 113.917939,79.8980222 116.286374,79.8980222 C118.6542,79.8980222 120.88507,79.4191405 122.977765,78.4607637 C125.071678,77.5017738 126.9002,76.1920536 128.464548,74.5309899 C130.028287,72.8693131 131.265765,70.9108644 132.175765,68.6525781 C133.083939,66.3955181 133.539243,63.9465375 133.539243,61.3050232 M150.981417,61.3050232 C150.981417,66.6720555 150.072026,71.5706298 148.254461,76.0007462 C146.435678,80.4308625 143.961939,84.233098 140.833243,87.4056132 C137.70333,90.5793547 134.03533,93.0393722 129.828026,94.7856659 C125.620113,96.5313463 121.107243,97.4051063 116.286374,97.4051063 C111.508113,97.4051063 107.01533,96.5104987 102.808026,94.7212836 C98.600113,92.9326816 94.9211565,90.4407794 91.7717652,87.2461903 C88.6211565,84.0516012 86.1364609,80.2493657 84.3188957,75.8407101 C82.500113,71.4320546 81.5913304,66.5868256 81.5913304,61.3050232 L81.5913304,0.477839402 L98.9708087,0.477839402 L98.9708087,32.4243435 C99.900287,31.2329641 101.032461,30.1678967 102.363678,29.2297544 C103.696113,28.2934516 105.133243,27.5269955 106.676896,26.9297729 C108.219939,26.3343898 109.816548,25.8757425 111.466113,25.5562836 C113.11507,25.2368246 114.721417,25.0767886 116.286374,25.0767886 C121.107243,25.0767886 125.620113,25.9830463 129.828026,27.7924959 C134.03533,29.603785 137.70333,32.1275717 140.833243,35.363856 C143.961939,38.6019798 146.435678,42.4244498 148.254461,46.8324922 C150.072026,51.2417609 150.981417,56.0655292 150.981417,61.3050232" id="Fill-4" fill="#FF8811"></path>
                    <path d="M287.791243,61.3050232 C287.791243,58.4936621 287.335939,55.9490278 286.427157,53.6698939 C285.517765,51.3913732 284.280287,49.4316982 282.716548,47.7914821 C281.1522,46.1518792 279.323678,44.8948911 277.229765,44.0217443 C275.13707,43.1492107 272.9062,42.7120241 270.538374,42.7120241 C268.169939,42.7120241 265.940287,43.1492107 263.846983,44.0217443 C261.753678,44.8948911 259.934896,46.1518792 258.391852,47.7914821 C256.8482,49.4316982 255.632635,51.3913732 254.745157,53.6698939 C253.85707,55.9490278 253.412722,58.4936621 253.412722,61.3050232 C253.412722,63.9465375 253.85707,66.3955181 254.745157,68.6525781 C255.632635,70.9108644 256.8482,72.8693131 258.391852,74.5309899 C259.934896,76.1920536 261.753678,77.5017738 263.846983,78.4607637 C265.940287,79.4191405 268.169939,79.8980222 270.538374,79.8980222 C272.9062,79.8980222 275.13707,79.451025 277.229765,78.5564175 C279.323678,77.6618099 281.1522,76.4060482 282.716548,74.7860665 C284.280287,73.1685375 285.517765,71.2082494 286.427157,68.9082679 C287.335939,66.6076732 287.791243,64.074689 287.791243,61.3050232 M305.233417,61.3050232 C305.233417,66.4163657 304.324026,71.176978 302.506461,75.5850204 C300.687678,79.9942891 298.213939,83.8063353 295.085243,87.021772 C291.95533,90.2390482 288.28733,92.7726455 284.080026,94.6256298 C279.872113,96.4786141 275.359243,97.4051063 270.538374,97.4051063 C265.760113,97.4051063 261.26733,96.4786141 257.060026,94.6256298 C252.852113,92.7726455 249.173157,90.2390482 246.023765,87.021772 C242.873157,83.8063353 240.388461,79.9942891 238.570896,75.5850204 C236.752113,71.176978 235.84333,66.4163657 235.84333,61.3050232 C235.84333,56.1084507 236.752113,51.2957195 238.570896,46.8649899 C240.388461,42.4354867 242.873157,38.6124036 246.023765,35.3957406 C249.173157,32.1803039 252.852113,29.6565172 257.060026,27.8243805 C261.26733,25.9934701 265.760113,25.0767886 270.538374,25.0767886 C275.359243,25.0767886 279.872113,25.9395116 284.080026,27.6649576 C288.28733,29.3897905 291.95533,31.8393842 295.085243,35.0125125 C298.213939,38.186254 300.687678,41.9989133 302.506461,46.4492641 C304.324026,50.9008413 305.233417,55.8527609 305.233417,61.3050232" id="Fill-6" fill="#FF8811"></path>
                    <polygon id="Fill-8" fill="#FF8811" points="332.254574 96.127332 314.811791 96.127332 314.811791 0.477900718 332.254574 0.477900718 332.254574 60.793705 358.069965 27.8244418 377.986487 27.8244418 355.469617 56.3212802 377.986487 96.127332 358.069965 96.127332 344.306139 71.272693 332.254574 87.3737899"></polygon>
                    <g id="Group-12" transform="translate(157.652174, 23.300266)">
                        <mask id="mask-2" fill="white">
                            <use xlink:href="#path-1"></use>
                        </mask>
                        <g id="Clip-11"></g>
                        <path d="M19.2976,28.9336571 C20.185687,26.6753708 21.4006435,24.716309 22.9449043,23.0552453 C24.4879478,21.3941816 26.3067304,20.0838482 28.3994261,19.1260846 C30.4933391,18.1670947 32.7229913,17.688213 35.0914261,17.688213 C37.4592522,17.688213 39.6901217,18.1358233 41.7828174,19.0304309 C43.8761217,19.9250385 45.7046435,21.180187 47.2696,22.8001687 C48.8333391,24.4183108 50.0708174,26.3773727 50.9802087,28.6779673 C51.8889913,30.978562 52.343687,33.5121594 52.343687,36.281212 C52.343687,39.0925731 51.8889913,41.6372074 50.9802087,43.9169544 C50.0708174,46.194862 48.8333391,48.154537 47.2696,49.7947531 C45.7046435,51.434356 43.8761217,52.6907309 41.7828174,53.565104 C39.6901217,54.4370245 37.4592522,54.8748243 35.0914261,54.8748243 C32.7229913,54.8748243 30.4933391,54.4370245 28.3994261,53.565104 C26.3067304,52.6907309 24.4879478,51.434356 22.9449043,49.7947531 C21.4006435,48.154537 20.185687,46.194862 19.2976,43.9169544 C18.4101217,41.6372074 17.9657739,39.0925731 17.9657739,36.281212 C17.9657739,33.6396977 18.4101217,31.1907171 19.2976,28.9336571 M67.059513,22.0012148 C65.2407304,17.5925592 62.7669913,13.7798999 59.637687,10.5644632 C56.5083826,7.34780019 52.8403826,4.81358968 48.6330783,2.96121854 C44.4251652,1.10762106 39.911687,0.18112891 35.0914261,0.18112891 C30.3125565,0.18112891 25.8203826,1.10762106 21.6130783,2.96121854 C17.4051652,4.81358968 13.7262087,7.34780019 10.5768174,10.5644632 C7.4256,13.7798999 4.94090435,17.5925592 3.12394783,22.0012148 C1.30455652,26.4098704 0.395773913,31.1698695 0.395773913,36.281212 C0.395773913,41.4777845 1.30455652,46.2911289 3.12394783,50.7212453 C4.94090435,55.1507485 7.4256,58.9732184 10.5768174,62.1898814 C13.7262087,65.4059313 17.4051652,67.9303312 21.6130783,69.7618547 C21.7427304,69.8182659 21.8748174,69.8660927 22.005687,69.9212776 C22.9765565,70.804235 23.7745565,71.8754341 24.3302957,73.0913401 L31.6224696,89.0777752 C32.521513,91.0454213 34.8333391,91.906918 36.7866435,91.0018866 C37.6309043,90.6106874 38.3083826,89.9282349 38.6967304,89.0777752 L46.0010783,73.0753978 C46.5123826,71.960664 47.2269913,70.9667237 48.0913391,70.1285273 C48.271513,70.0574002 48.453513,69.9954705 48.6330783,69.9218907 C52.8403826,68.1964447 56.5083826,65.746851 59.637687,62.5737227 C62.7669913,59.3999812 65.2407304,55.587935 67.059513,51.1363579 C68.8770783,46.6847808 69.7864696,41.7334743 69.7864696,36.281212 C69.7864696,31.1698695 68.8770783,26.4098704 67.059513,22.0012148" id="Fill-10" fill="#FF8811" mask="url(#mask-2)"></path>
                    </g>
                    <path d="M202.773017,59.5817232 C202.773017,65.1621369 198.28267,69.6854544 192.74293,69.6854544 C187.2038,69.6854544 182.713452,65.1621369 182.713452,59.5817232 C182.713452,54.0013095 187.2038,49.4779921 192.74293,49.4779921 C198.28267,49.4779921 202.773017,54.0013095 202.773017,59.5817232" id="Fill-13" fill="#FF8811"></path>
                </g>
            </g>
        </g>
    </g>
</svg>