<?xml version="1.0" encoding="UTF-8"?>
<svg width="49px" height="55px" viewBox="0 0 49 55" version="1.1" xmlns="http://www.w3.org/2000/svg" xmlns:xlink="http://www.w3.org/1999/xlink">
    <title>PET GROOMING</title>
    <g id="Page-1" stroke="none" stroke-width="1" fill="none" fill-rule="evenodd">
        <g id="Landing-Page" transform="translate(-636.000000, -2760.000000)" fill="#FFFFFF">
            <g id="PET-GROOMING" transform="translate(636.000000, 2760.000000)">
                <path d="M40.7961097,9.10864087 C35.431286,9.10864087 31.0449522,13.4190579 30.9148082,18.8222567 C30.9148082,19.2787966 30.548477,19.6503424 30.0953832,19.6503424 C29.7700233,19.6503424 29.4784044,19.4609269 29.3434403,19.1622332 L27.9190868,15.9591684 C27.7238709,15.5220557 27.8034033,15.0072341 28.121533,14.6502587 C29.5145555,13.1033654 30.2905992,11.0902185 30.2930092,9.0017911 L30.2930092,0.609227037 C30.2930092,0.274107291 30.0206709,0.0021260487 29.6904909,0.0021260487 C29.5458865,0.0021260487 29.4036921,0.0531225317 29.2976489,0.147830286 L24.7160991,4.11098554 C24.4244802,4.36353955 24.0292281,4.46067571 23.6532567,4.37325316 C22.4795509,4.06970267 21.2504134,4.06970267 20.0767076,4.37325316 C19.698326,4.46553251 19.2982538,4.36839636 19.0018148,4.11098554 L14.4033945,0.147830286 C14.1527468,-0.0707260699 13.7743653,-0.0440136264 13.5574586,0.208540385 C13.4610557,0.320246966 13.4104442,0.461094396 13.4104442,0.609227037 L13.4104442,9.0017911 C13.4128542,11.0902185 14.1864878,13.1033654 15.5795103,14.6502587 C15.89764,15.0072341 15.9771725,15.5220557 15.7819565,15.9591684 L11.5137163,25.5489356 C10.1785356,28.5844406 11.535407,32.1347671 14.5479989,33.4825313 C15.3288627,33.8322215 16.1723884,34.0070666 17.0255545,34 L26.6658486,34 C28.5673966,34.0119234 30.3580812,33.1109855 31.4884057,31.5713774 C31.6691612,31.5228094 31.8475067,31.4572424 32.0138018,31.3673915 C34.3467529,30.0681954 35.7783366,27.5790813 35.7349553,24.8932666 L35.7349553,18.8222567 C35.8385884,16.0903022 38.0823669,13.9363079 40.7961097,13.9654488 C42.6590965,13.9654488 44.1702126,15.4880581 44.1702126,17.3652143 C44.1678026,18.5988435 43.1772623,19.5969175 41.952945,19.5993459 C41.6709664,19.5993459 41.3986281,19.5046382 41.1744912,19.3297931 C40.1092387,18.5259914 38.6005327,18.7445478 37.8003883,19.8179023 C37.0195245,20.8694012 37.2099203,22.3555844 38.2317915,23.1739566 C39.297044,24.0093275 40.6129441,24.4610107 41.9625853,24.4561539 C45.8500339,24.451297 48.9951799,21.2798015 49,17.3652143 C49,12.8046717 45.3318681,9.10864087 40.80575,9.10864087 L40.7961097,9.10864087 Z" id="Fill-1"></path>
                <path d="M1.19889002,44 L16.8470693,44 C17.2740547,44 17.6676446,43.7556364 17.8799446,43.3636364 C19.2038378,40.9327273 22.1235591,40.1054545 24.4016096,41.5181818 C25.1196129,41.9610909 25.7135758,42.5974545 26.1310196,43.3636364 C26.345705,43.7581818 26.7392949,44 27.1662803,44 L42.8073034,44 C43.4680573,44 44,43.4298182 44,42.7272727 C44,42.544 43.9642191,42.3607273 43.8902719,42.1952727 C42.5305978,39.0338182 39.5727102,37.0050909 36.3118778,37 L7.68715949,37 C4.4287124,37.0050909 1.46843945,39.0338182 0.108765335,42.1952727 C-0.165554882,42.8341818 0.0968383692,43.5901818 0.695572059,43.8829091 C0.85300801,43.9592727 1.02475632,44 1.19889002,44" id="Fill-3"></path>
                <path d="M42.8030155,48 L27.1589106,48 C26.7342917,48 26.3382988,48.2418182 26.1259893,48.6363636 C24.8020372,51.0672727 21.8821859,51.8945455 19.604034,50.4818182 C18.8859987,50.0389091 18.2920093,49.4025455 17.8745469,48.6363636 C17.659852,48.2443636 17.2662446,48 16.8416257,48 L1.19274969,48 C0.534351863,48 0,48.5701818 0,49.2727273 C0,49.456 0.0381679902,49.6392727 0.109732972,49.8047273 C1.46708212,52.9661818 4.42748687,54.9949091 7.68607903,55 L36.3096862,55 C39.5730494,54.9949091 42.5310686,52.9661818 43.8908033,49.8047273 C44.1651357,49.1658182 43.9051163,48.4098182 43.3063559,48.1170909 C43.148913,48.0407273 42.9747715,48 42.8030155,48" id="Fill-5"></path>
            </g>
        </g>
    </g>
</svg>